{
  "title": "Hitman.Agent.47.2015.HQ.Cam.Xvid.HaL0",
  "uid": 12276527,
  "size": 1509725246,
  "categoryP": "video",
  "categoryS": "movies",
  "magnet": "?xt=urn:btih:ca6482692c6cad21292b8a4af97965cd24119d07&amp;dn=Hitman.Agent.47.2015.HQ.Cam.Xvid.HaL0&amp;tr=udp%3A%2F%2Ftracker.openbittorrent.com%3A80&amp;tr=udp%3A%2F%2Fopen.demonii.com%3A1337&amp;tr=udp%3A%2F%2Ftracker.coppersurfer.tk%3A6969&amp;tr=udp%3A%2F%2Fexodus.desync.com%3A6969",
  "seeders": 104,
  "leechers": 5,
  "uploader": "xxxlavalxxx",
  "files": 2,
  "time": 1440357882,
  "description": " &lt;a href=&quot;http://extraimago.com/image/LKP&quot; rel=&quot;nofollow&quot; target=&quot;_NEW&quot;&gt;http://extraimago.com/image/LKP&lt;/a&gt;\n &lt;a href=&quot;\nhttp://www.imdb.com/title/tt2679042/&quot; rel=&quot;nofollow&quot; target=&quot;_NEW&quot;&gt;\nhttp://www.imdb.com/title/tt2679042/&lt;/a&gt;\n\n\nHITMAN: AGENT 47 centers on an elite assassin who was genetically engineered from conception to be the perfect killing machine, and is known only by the last two digits on the barcode tattooed on the back of his neck. He is the culmination of decades of research Â­ and forty-six earlier Agent clones -- endowing him with unprecedented strength, speed, stamina and intelligence. His latest target is a mega-corporation that plans to unlock the secret of Agent 47's past to create an army of killers whose powers surpass even his own. Teaming up with a young woman who may hold the secret to overcoming their powerful and clandestine enemies, 47 confronts stunning revelations about his own origins and squares off in an epic battle with his deadliest foe. \n\nDirector: Aleksander Bach\nWriters: Skip Woods (screenplay), Michael Finch (screenplay)\nStars: Rupert Friend, Hannah Ware, Zachary Quinto\nGenres: Action | Crime | Thriller\nCountry: Germany | USA\nLanguage: English\n\n\n**Note very nice 1st CAM missing approximately 2 mins 16 at the half way point - Exclusive 1st on net*\n &lt;a href=&quot;\nhttp://www.imdb.com/title/tt2679042/&quot; rel=&quot;nofollow&quot; target=&quot;_NEW&quot;&gt;\nhttp://www.imdb.com/title/tt2679042/&lt;/a&gt;\n\nGeneral\nComplete name: Hitman.Agent.47.2015.HQ.Cam.Xvid.HaL0.avi\nFormat: AVI\nFormat/Info: Audio Video Interleave\nFormat profile: OpenDML\nFile size: 1.41 GiB\nDuration: 1h 28mn\nOverall bit rate mode: Variable\nOverall bit rate: 2 268 Kbps\nWriting application: Lavf54.63.104\n\nVideo\nID: 0\nFormat: MPEG-4 Visual\nFormat profile: Simple@L3\nFormat settings, BVOP: No\nFormat settings, QPel: No\nFormat settings, GMC: No warppoints\nFormat settings, Matrix: Default (H.263)\nCodec ID: XVID\nCodec ID/Hint: XviD\nDuration: 1h 28mn\nBit rate: 2 108 Kbps\nWidth: 640 pixels\nHeight: 480 pixels\nDisplay aspect ratio: 4:3\nFrame rate: 29.639 fps\nColor space: YUV\nChroma subsampling: 4:2:0\nBit depth: 8 bits\nScan type: Progressive\nCompression mode: Lossy\nBits/(Pixel*Frame): 0.231\nStream size: 1.31 GiB (93%)\nWriting library: XviD 64\n\nAudio\nID: 1\nFormat: MPEG Audio\nFormat version: Version 1\nFormat profile: Layer 3\nMode: Joint stereo\nMode extension: MS Stereo\nCodec ID: 55\nCodec ID/Hint: MP3\nDuration: 1h 28mn\nBit rate mode: Variable\nBit rate: 128 Kbps\nChannel(s): 2 channels\nSampling rate: 44.1 KHz\nCompression mode: Lossy\nStream size: 92.1 MiB (6%)\nAlignment: Aligned on interleaves\nInterleave, duration: 26 ms (0.77 video frame)\nInterleave, preload duration: 6 ms \n\n &lt;a href=&quot;\nhttp://extraimago.com/image/LKX&quot; rel=&quot;nofollow&quot; target=&quot;_NEW&quot;&gt;\nhttp://extraimago.com/image/LKX&lt;/a&gt; &lt;a href=&quot;\nhttp://extraimago.com/image/LKg&quot; rel=&quot;nofollow&quot; target=&quot;_NEW&quot;&gt;\nhttp://extraimago.com/image/LKg&lt;/a&gt; &lt;a href=&quot;\nhttp://extraimago.com/image/LK5&quot; rel=&quot;nofollow&quot; target=&quot;_NEW&quot;&gt;\nhttp://extraimago.com/image/LK5&lt;/a&gt; &lt;a href=&quot;\nhttp://extraimago.com/image/LKD&quot; rel=&quot;nofollow&quot; target=&quot;_NEW&quot;&gt;\nhttp://extraimago.com/image/LKD&lt;/a&gt; &lt;a href=&quot;\nhttp://extraimago.com/image/LKF&quot; rel=&quot;nofollow&quot; target=&quot;_NEW&quot;&gt;\nhttp://extraimago.com/image/LKF&lt;/a&gt;",
  "parsed": {
    "xt": "urn:btih:ca6482692c6cad21292b8a4af97965cd24119d07",
    "dn": "Hitman.Agent.47.2015.HQ.Cam.Xvid.HaL0",
    "tr": [
      "udp://exodus.desync.com:6969",
      "udp://open.demonii.com:1337",
      "udp://tracker.coppersurfer.tk:6969",
      "udp://tracker.openbittorrent.com:80"
    ],
    "infoHash": "ca6482692c6cad21292b8a4af97965cd24119d07",
    "infoHashBuffer": {
      "type": "Buffer",
      "data": [
        202,
        100,
        130,
        105,
        44,
        108,
        173,
        33,
        41,
        43,
        138,
        74,
        249,
        121,
        101,
        205,
        36,
        17,
        157,
        7
      ]
    },
    "name": "Hitman.Agent.47.2015.HQ.Cam.Xvid.HaL0",
    "announce": [
      "udp://exodus.desync.com:6969",
      "udp://open.demonii.com:1337",
      "udp://tracker.coppersurfer.tk:6969",
      "udp://tracker.openbittorrent.com:80"
    ],
    "urlList": []
  },
  "previous": 109,
  "peers": 11,
  "last_updated": "2016-12-25T13:55:19.525Z"
}